<svg width="256" height="256" viewBox="0 0 256 256" fill="none" xmlns="http://www.w3.org/2000/svg">
<rect width="256" height="256" rx="4" fill="black"/>
<path d="M53.5896 115.959C63.6368 115.959 71.7099 119.07 77.8087 125.293C83.9428 131.479 87.0098 139.487 87.0098 149.315V159.868C87.0098 169.732 83.9428 177.757 77.8087 183.944C71.7099 190.096 63.6368 193.171 53.5896 193.171H21.3328V186.489L29.9522 185.005V124.179L21.3328 122.694V115.959H53.5896ZM40.3696 124.179V185.005H53.5896C60.7108 185.005 66.3161 182.654 70.4055 177.952C74.5301 173.25 76.5924 167.222 76.5924 159.868V149.209C76.5924 141.926 74.5301 135.934 70.4055 131.232C66.3161 126.53 60.7108 124.179 53.5896 124.179H40.3696Z" fill="#FBFBFB"/>
<path d="M95.4102 193.171V186.489L104.03 185.005V124.179L95.4102 122.694V115.959H154.53V134.52H145.593L144.747 124.179H114.447V149.156H143.901V157.376H114.447V185.005H145.382L146.228 174.664H155.112V193.171H95.4102Z" fill="#FBFBFB"/>
<path d="M164.97 186.489L171.897 185.323L193.79 154.247L172.426 123.861L165.499 122.694V115.959H190.458V122.694L184.271 123.383L199.659 146.558L215.206 123.383L209.019 122.694V115.959H234.047V122.694L227.21 123.861L205.846 154.247L227.686 185.323L234.666 186.489V193.171H209.76V186.489L215.841 185.8L199.871 162.043L183.848 185.8L190.035 186.489V193.171H164.97V186.489Z" fill="#FBFBFB"/>
<path fill-rule="evenodd" clip-rule="evenodd" d="M127.773 62.6797L36.0507 102.075L21.3328 104.246V112.104L54.2846 112.099V104.246H50.8497L59.9918 100.32H195.554L204.696 104.246H201.261V112.099L234.047 112.085V105.803V104.246H224.468L127.773 62.6797ZM177.27 92.4663L127.773 71.2069L78.2759 92.4663H177.27Z" fill="#FBFBFB"/>
<path d="M217.007 101.946L214.723 105.818L234.047 105.803V104.246L222.898 102.866L217.007 101.946Z" fill="#FBFBFB"/>
</svg>
